<svg width="15" height="15" viewBox="0 0 15 15" fill="none" xmlns="http://www.w3.org/2000/svg">
<path d="M13.6172 6.70839L5.175 1.54393C5.03267 1.45678 4.86965 1.4092 4.70278 1.40611C4.53591 1.40302 4.37124 1.44453 4.22578 1.52635C4.08171 1.60691 3.96169 1.72439 3.87806 1.86671C3.79444 2.00903 3.75024 2.17105 3.75 2.33612V12.6639C3.75109 12.9115 3.85045 13.1485 4.02625 13.3229C4.20205 13.4972 4.43989 13.5947 4.6875 13.5937C4.86032 13.5937 5.02979 13.546 5.17734 13.456L13.6172 8.29159C13.7529 8.2089 13.865 8.09271 13.9428 7.95418C14.0206 7.81566 14.0614 7.65945 14.0614 7.50057C14.0614 7.3417 14.0206 7.18549 13.9428 7.04696C13.865 6.90844 13.7529 6.79225 13.6172 6.70956V6.70839ZM4.6875 12.6527V2.34374L13.115 7.49999L4.6875 12.6527Z" fill="black"/>
</svg>
