<svg width="15" height="15" viewBox="0 0 15 15" fill="none" xmlns="http://www.w3.org/2000/svg">
<path d="M13.5861 6.67968L3.74239 1.06113C3.57635 0.967657 3.38577 0.926998 3.19604 0.94457C3.00631 0.962142 2.82643 1.03711 2.68038 1.15949C2.53433 1.28186 2.42904 1.44584 2.37853 1.62957C2.32802 1.81329 2.3347 2.00805 2.39766 2.18789L4.19239 7.5L2.39766 12.8127C2.34772 12.9541 2.33241 13.1054 2.35302 13.2539C2.37362 13.4024 2.42955 13.5438 2.51611 13.6662C2.60266 13.7886 2.71732 13.8885 2.85045 13.9575C2.98359 14.0264 3.13132 14.0624 3.28126 14.0625C3.44415 14.0622 3.6042 14.0198 3.74591 13.9394L13.585 8.31152C13.7301 8.23023 13.851 8.11178 13.9352 7.96834C14.0194 7.8249 14.064 7.66163 14.0643 7.49529C14.0646 7.32894 14.0206 7.16552 13.9369 7.02177C13.8532 6.87803 13.7327 6.75916 13.5879 6.67734L13.5861 6.67968ZM3.28126 13.125C3.28151 13.1227 3.28151 13.1203 3.28126 13.118L5.02384 7.96875H8.43751C8.56183 7.96875 8.68106 7.91936 8.76896 7.83145C8.85687 7.74355 8.90626 7.62432 8.90626 7.5C8.90626 7.37568 8.85687 7.25645 8.76896 7.16854C8.68106 7.08063 8.56183 7.03125 8.43751 7.03125H5.02384L3.28477 1.88437C3.2842 1.88105 3.283 1.87787 3.28126 1.875L13.125 7.49004L3.28126 13.125Z" fill="black"/>
</svg>
